<svg width="60" height="60" viewBox="0 0 60 60" fill="none" xmlns="http://www.w3.org/2000/svg">
<path d="M14.5312 5.58185C14.5232 5.2296 14.4161 4.88675 14.2221 4.59258C14.0282 4.29842 13.7553 4.06486 13.4347 3.91866C13.1141 3.77247 12.7589 3.71955 12.4096 3.76599C12.0603 3.81243 11.7312 3.95634 11.46 4.18122C8.23686 6.85685 6.28124 9.06935 5.14499 11.1375C3.97499 13.2693 3.75186 15.12 3.75186 16.875C3.75186 18.8641 4.54204 20.7717 5.94856 22.1783C7.35508 23.5848 9.26274 24.375 11.2519 24.375C13.241 24.375 15.1486 23.5848 16.5552 22.1783C17.9617 20.7717 18.7519 18.8641 18.7519 16.875C18.7519 14.475 17.5781 12.6937 16.6594 11.2987L16.3894 10.8862C15.4144 9.37497 14.5837 7.90497 14.5312 5.58185ZM3.75374 31.8881C3.75374 29.7956 3.91874 27.1481 4.84874 24.9581C6.66939 26.4043 8.92672 27.1902 11.2519 27.1875C13.6744 27.1875 15.9019 26.3512 17.6606 24.9543C18.5887 27.1481 18.7519 29.7956 18.7519 31.8862C18.7519 35.3437 18.2119 41.0887 17.2237 45.9918C16.7306 48.435 16.1081 50.7731 15.3375 52.5431C14.9569 53.4206 14.4937 54.2662 13.9125 54.9225C13.3425 55.5675 12.4556 56.25 11.2575 56.25C10.0575 56.25 9.17061 55.5675 8.60061 54.9225C8.02124 54.2662 7.55811 53.4225 7.17561 52.5431C6.40499 50.775 5.77874 48.4368 5.28561 45.9918C4.29561 41.0906 3.75186 35.3437 3.75186 31.8862M20.5987 12.525C22.4561 11.6387 24.4959 11.2017 26.5533 11.2491C28.6108 11.2965 30.6282 11.8271 32.4428 12.798C34.2574 13.7689 35.8182 15.1529 36.9993 16.8382C38.1803 18.5235 38.9486 20.463 39.2419 22.5H32.8125C30.5747 22.5 28.4286 23.3889 26.8463 24.9713C25.2639 26.5536 24.375 28.6997 24.375 30.9375V37.3687C23.338 37.2192 22.3226 36.946 21.3506 36.555C21.247 37.8407 21.1164 39.1241 20.9587 40.4043C22.0687 40.7695 23.2136 41.0183 24.375 41.1468V45.9375C24.375 48.1752 25.2639 50.3213 26.8463 51.9037C28.4286 53.486 30.5747 54.375 32.8125 54.375H47.8125C50.0503 54.375 52.1964 53.486 53.7787 51.9037C55.361 50.3213 56.25 48.1752 56.25 45.9375V30.9375C56.25 28.6997 55.361 26.5536 53.7787 24.9713C52.1964 23.3889 50.0503 22.5 47.8125 22.5H43.0219C42.7203 19.7986 41.7706 17.21 40.2537 14.9545C38.7367 12.699 36.6973 10.8434 34.3091 9.54541C31.9208 8.24745 29.2544 7.54562 26.5366 7.49962C23.8188 7.45362 21.1302 8.06482 18.6994 9.28122L18.75 9.35997L19.005 9.74435C19.4475 10.4062 20.0737 11.3475 20.5987 12.525ZM47.8125 26.25C49.0557 26.25 50.248 26.7438 51.1271 27.6229C52.0061 28.502 52.5 29.6943 52.5 30.9375V45.9375C52.5 47.1807 52.0061 48.373 51.1271 49.252C50.248 50.1311 49.0557 50.625 47.8125 50.625H32.8125C31.5693 50.625 30.377 50.1311 29.4979 49.252C28.6188 48.373 28.125 47.1807 28.125 45.9375V41.1468C31.9291 40.7204 35.4754 39.0139 38.1822 36.3071C40.8889 33.6004 42.5955 30.0541 43.0219 26.25H47.8125ZM28.125 37.3687V30.9375C28.125 29.6943 28.6188 28.502 29.4979 27.6229C30.377 26.7438 31.5693 26.25 32.8125 26.25H39.2437C38.8395 29.0554 37.5379 31.6545 35.5337 33.6587C33.5295 35.6629 30.9304 36.9644 28.125 37.3687Z" fill="#FFA514"/>
</svg>
