<svg width="60" height="60" viewBox="0 0 60 60" fill="none" xmlns="http://www.w3.org/2000/svg">
<g clip-path="url(#clip0_12_59)">
<path d="M52.5 42.5H7.5V12.5H52.5M52.5 7.5H7.5C4.75 7.5 2.5 9.75 2.5 12.5V42.5C2.5 43.8261 3.02678 45.0979 3.96447 46.0355C4.90215 46.9732 6.17392 47.5 7.5 47.5H20V52.5H40V47.5H52.5C55.275 47.5 57.5 45.275 57.5 42.5V12.5C57.5 11.1739 56.9732 9.90215 56.0355 8.96447C55.0979 8.02678 53.8261 7.5 52.5 7.5ZM37.5 16.25L35.95 19.675L32.5 21.25L35.95 22.825L37.5 26.25L39.075 22.825L42.5 21.25L39.075 19.675L37.5 16.25ZM26.25 21.25L23.525 27.275L17.5 30L23.525 32.725L26.25 38.75L29 32.725L35 30L29 27.275L26.25 21.25Z" fill="#FFA514"/>
</g>
<defs>
<clipPath id="clip0_12_59">
<rect width="60" height="60" fill="white"/>
</clipPath>
</defs>
</svg>
