<svg width="60" height="60" viewBox="0 0 60 60" fill="none" xmlns="http://www.w3.org/2000/svg">
<g clip-path="url(#clip0_12_66)">
<path d="M6.62109 20.5371C5.68359 19.5996 4.9707 18.5352 4.48242 17.3438C3.99414 16.1523 3.75 14.9023 3.75 13.5938C3.75 12.207 4.00391 10.9277 4.51172 9.75586C5.01953 8.58398 5.71289 7.55859 6.5918 6.67969C7.4707 5.80078 8.51562 5.11719 9.72656 4.62891C10.9375 4.14063 12.2168 3.88672 13.5645 3.86719C14.8535 3.86719 16.1035 4.0918 17.3145 4.54102C18.5254 4.99023 19.5996 5.68359 20.5371 6.62109L30.8789 16.9629L28.2129 19.6289L22.5 13.916L13.916 22.5L19.6289 28.2129L16.9629 30.8789L6.62109 20.5371ZM13.5938 7.55859C12.7539 7.55859 11.9629 7.70508 11.2207 7.99805C10.4785 8.29102 9.83398 8.7207 9.28711 9.28711C8.74023 9.85352 8.31055 10.4883 7.99805 11.1914C7.68555 11.8945 7.51953 12.6953 7.5 13.5938C7.5 14.3359 7.59766 14.9805 7.79297 15.5273C7.98828 16.0742 8.27148 16.5918 8.64258 17.0801C9.01367 17.5684 9.41406 18.0273 9.84375 18.457C10.2734 18.8867 10.7422 19.3457 11.25 19.834L19.834 11.25C19.3262 10.7617 18.8672 10.293 18.457 9.84375C18.0469 9.39453 17.5977 9.00391 17.1094 8.67188C16.6211 8.33984 16.1133 8.06641 15.5859 7.85156C15.0586 7.63672 14.3945 7.53906 13.5938 7.55859ZM60 60L41.4551 55.3711L32.8711 46.7871L35.5371 44.1211L41.8945 50.5078C42.207 49.4922 42.6367 48.5352 43.1836 47.6367C43.7305 46.7383 44.3848 45.9082 45.1465 45.1465C45.9082 44.3848 46.7285 43.7402 47.6074 43.2129C48.4863 42.6855 49.4531 42.2461 50.5078 41.8945L44.1211 35.5371L46.7871 32.8711L55.3711 41.4551L60 60ZM54.8438 54.8438L52.4414 45.2051C51.5234 45.4004 50.6738 45.7129 49.8926 46.1426C49.1113 46.5723 48.3984 47.1094 47.7539 47.7539C47.1094 48.3984 46.5723 49.1113 46.1426 49.8926C45.7129 50.6738 45.4004 51.5234 45.2051 52.4414L54.8438 54.8438ZM50.625 5.625C51.6602 5.625 52.627 5.82031 53.5254 6.21094C54.4238 6.60156 55.2246 7.13867 55.9277 7.82227C56.6309 8.50586 57.168 9.29688 57.5391 10.1953C57.9102 11.0938 58.1055 12.0703 58.125 13.125C58.125 14.1211 57.9395 15.0781 57.5684 15.9961C57.1973 16.9141 56.6504 17.7246 55.9277 18.4277L22.3535 52.002C22.1777 53.1543 21.8164 54.209 21.2695 55.166C20.7227 56.123 20.0391 56.9727 19.2188 57.7148C18.3984 58.457 17.4707 59.0137 16.4355 59.3848C15.4004 59.7559 14.2969 59.9609 13.125 60H0V56.25C0.214844 56.25 0.439453 56.2207 0.673828 56.1621C0.908203 56.1035 1.12305 56.0156 1.31836 55.8984C1.80664 55.6445 2.20703 55.3223 2.51953 54.9316C2.83203 54.541 3.07617 54.1113 3.25195 53.6426C3.42773 53.1738 3.55469 52.6855 3.63281 52.1777C3.71094 51.6699 3.75 51.1523 3.75 50.625C3.75 49.4727 3.94531 48.3789 4.33594 47.3438C4.72656 46.3086 5.29297 45.3711 6.03516 44.5312C6.77734 43.6914 7.61719 43.0078 8.55469 42.4805C9.49219 41.9531 10.5566 41.5918 11.748 41.3965L45.3223 7.82227C46.0254 7.11914 46.8359 6.58203 47.7539 6.21094C48.6719 5.83984 49.6289 5.64453 50.625 5.625ZM13.125 56.25C13.9062 56.25 14.6387 56.1035 15.3223 55.8105C16.0059 55.5176 16.6016 55.1172 17.1094 54.6094C17.6172 54.1016 18.0176 53.5059 18.3105 52.8223C18.6035 52.1387 18.75 51.4062 18.75 50.625C18.75 49.8438 18.6035 49.1113 18.3105 48.4277C18.0176 47.7441 17.6172 47.1484 17.1094 46.6406C16.6016 46.1328 16.0059 45.7324 15.3223 45.4395C14.6387 45.1465 13.9062 45 13.125 45C12.3438 45 11.6113 45.1465 10.9277 45.4395C10.2441 45.7324 9.64844 46.1328 9.14062 46.6406C8.63281 47.1484 8.23242 47.7441 7.93945 48.4277C7.64648 49.1113 7.5 49.8438 7.5 50.625C7.5 52.6562 6.875 54.5312 5.625 56.25H13.125ZM28.3008 40.752C27.6758 39.5215 26.9434 38.4863 26.1035 37.6465C25.2637 36.8066 24.2285 36.0742 22.998 35.4492L16.5234 41.9238C17.7344 42.3926 18.7988 43.0859 19.7168 44.0039C20.6348 44.9219 21.3379 45.9961 21.8262 47.2266L28.3008 40.752ZM53.2617 15.7617C53.9844 15.0391 54.3457 14.1602 54.3457 13.125C54.3457 12.6172 54.248 12.1387 54.0527 11.6895C53.8574 11.2402 53.5938 10.8496 53.2617 10.5176C52.9297 10.1855 52.5293 9.91211 52.0605 9.69727C51.5918 9.48242 51.1133 9.38477 50.625 9.4043C49.5898 9.4043 48.7109 9.76562 47.9883 10.4883L25.752 32.6953C26.9434 33.3984 27.9492 34.1602 28.7695 34.9805C29.5898 35.8008 30.3516 36.8066 31.0547 37.998L53.2617 15.7617Z" fill="#FFA514"/>
</g>
<defs>
<clipPath id="clip0_12_66">
<rect width="60" height="60" fill="white"/>
</clipPath>
</defs>
</svg>
