<svg width="25" height="25" viewBox="0 0 25 25" fill="none" xmlns="http://www.w3.org/2000/svg">
<path fill-rule="evenodd" clip-rule="evenodd" d="M3.75 21.25C3.75 20.9185 3.8817 20.6005 4.11612 20.3661C4.35054 20.1317 4.66848 20 5 20H20C20.3315 20 20.6495 20.1317 20.8839 20.3661C21.1183 20.6005 21.25 20.9185 21.25 21.25C21.25 21.5815 21.1183 21.8995 20.8839 22.1339C20.6495 22.3683 20.3315 22.5 20 22.5H5C4.66848 22.5 4.35054 22.3683 4.11612 22.1339C3.8817 21.8995 3.75 21.5815 3.75 21.25ZM7.86625 11.6163C8.10066 11.3819 8.41854 11.2503 8.75 11.2503C9.08146 11.2503 9.39934 11.3819 9.63375 11.6163L11.25 13.2325V3.75C11.25 3.41848 11.3817 3.10054 11.6161 2.86612C11.8505 2.6317 12.1685 2.5 12.5 2.5C12.8315 2.5 13.1495 2.6317 13.3839 2.86612C13.6183 3.10054 13.75 3.41848 13.75 3.75V13.2325L15.3663 11.6163C15.4816 11.4969 15.6195 11.4016 15.772 11.3361C15.9245 11.2706 16.0885 11.2361 16.2545 11.2347C16.4205 11.2332 16.5851 11.2649 16.7387 11.3277C16.8923 11.3906 17.0319 11.4834 17.1492 11.6008C17.2666 11.7181 17.3594 11.8577 17.4223 12.0113C17.4851 12.1649 17.5168 12.3295 17.5153 12.4955C17.5139 12.6615 17.4794 12.8255 17.4139 12.978C17.3484 13.1305 17.2531 13.2684 17.1337 13.3837L13.3837 17.1337C13.1493 17.3681 12.8315 17.4997 12.5 17.4997C12.1685 17.4997 11.8507 17.3681 11.6163 17.1337L7.86625 13.3837C7.63191 13.1493 7.50027 12.8315 7.50027 12.5C7.50027 12.1685 7.63191 11.8507 7.86625 11.6163Z" fill="white"/>
</svg>
