<svg width="71" height="72" viewBox="0 0 71 72" fill="none" xmlns="http://www.w3.org/2000/svg">
<path d="M37.2174 6.50412C37.9589 5.04656 40.0411 5.04657 40.7826 6.50412L63.502 51.1646C64.1789 52.4952 63.2123 54.0714 61.7194 54.0714H16.2806C14.7877 54.0714 13.8211 52.4952 14.498 51.1646L37.2174 6.50412Z" fill="#3D3C3C"/>
<g filter="url(#filter0_d_2_10)">
<path d="M28.2174 6.50412C28.9589 5.04656 31.0411 5.04657 31.7826 6.50412L54.502 51.1646C55.1789 52.4952 54.2123 54.0714 52.7194 54.0714H7.28058C5.78774 54.0714 4.82111 52.4952 5.49798 51.1646L28.2174 6.50412Z" fill="#3D3C3C"/>
</g>
<g filter="url(#filter1_d_2_10)">
<path d="M30.9406 50.4613C30.6228 51.3421 29.3771 51.3421 29.0593 50.4613L23.1191 33.9993C22.8839 33.3475 23.3668 32.6599 24.0598 32.6599H35.9402C36.6331 32.6599 37.116 33.3475 36.8808 33.9993L30.9406 50.4613Z" fill="#FF7F00"/>
<path d="M19.5195 29.8113C19.6889 29.4725 20.0352 29.2585 20.4139 29.2585H26.3625C26.5178 29.2585 26.6709 29.2947 26.8098 29.3641L29.5528 30.7356C29.8343 30.8764 30.1657 30.8764 30.4472 30.7356L33.1902 29.3641C33.329 29.2947 33.4822 29.2585 33.6374 29.2585H39.586C39.9648 29.2585 40.3111 29.4725 40.4805 29.8113L41.1811 31.2127C41.5136 31.8776 41.0301 32.6599 40.2867 32.6599H19.7132C18.9699 32.6599 18.4864 31.8776 18.8188 31.2127L19.5195 29.8113Z" fill="#FF7F00"/>
</g>
<defs>
<filter id="filter0_d_2_10" x="5.27795" y="0.41095" width="65.4441" height="64.6605" filterUnits="userSpaceOnUse" color-interpolation-filters="sRGB">
<feFlood flood-opacity="0" result="BackgroundImageFix"/>
<feColorMatrix in="SourceAlpha" type="matrix" values="0 0 0 0 0 0 0 0 0 0 0 0 0 0 0 0 0 0 127 0" result="hardAlpha"/>
<feOffset dx="8" dy="3"/>
<feGaussianBlur stdDeviation="4"/>
<feComposite in2="hardAlpha" operator="out"/>
<feColorMatrix type="matrix" values="0 0 0 0 0 0 0 0 0 0 0 0 0 0 0 0 0 0 0.4 0"/>
<feBlend mode="normal" in2="BackgroundImageFix" result="effect1_dropShadow_2_10"/>
<feBlend mode="normal" in="SourceGraphic" in2="effect1_dropShadow_2_10" result="shape"/>
</filter>
<filter id="filter1_d_2_10" x="8.71198" y="23.2585" width="42.576" height="41.8633" filterUnits="userSpaceOnUse" color-interpolation-filters="sRGB">
<feFlood flood-opacity="0" result="BackgroundImageFix"/>
<feColorMatrix in="SourceAlpha" type="matrix" values="0 0 0 0 0 0 0 0 0 0 0 0 0 0 0 0 0 0 127 0" result="hardAlpha"/>
<feOffset dy="4"/>
<feGaussianBlur stdDeviation="5"/>
<feComposite in2="hardAlpha" operator="out"/>
<feColorMatrix type="matrix" values="0 0 0 0 0 0 0 0 0 0 0 0 0 0 0 0 0 0 0.25 0"/>
<feBlend mode="normal" in2="BackgroundImageFix" result="effect1_dropShadow_2_10"/>
<feBlend mode="normal" in="SourceGraphic" in2="effect1_dropShadow_2_10" result="shape"/>
</filter>
</defs>
</svg>
