<svg width="60" height="60" viewBox="0 0 60 60" fill="none" xmlns="http://www.w3.org/2000/svg">
<path d="M13.5 12C11.5109 12 9.60322 12.7902 8.1967 14.1967C6.79018 15.6032 6 17.5109 6 19.5V40.5C6 42.4891 6.79018 44.3968 8.1967 45.8033C9.60322 47.2098 11.5109 48 13.5 48H46.5C48.4891 48 50.3968 47.2098 51.8033 45.8033C53.2098 44.3968 54 42.4891 54 40.5V19.5C54 17.5109 53.2098 15.6032 51.8033 14.1967C50.3968 12.7902 48.4891 12 46.5 12H13.5ZM9 19.5C9 18.3065 9.47411 17.1619 10.318 16.318C11.1619 15.4741 12.3065 15 13.5 15H46.5C47.6935 15 48.8381 15.4741 49.682 16.318C50.5259 17.1619 51 18.3065 51 19.5V40.5C51 41.6935 50.5259 42.8381 49.682 43.682C48.8381 44.5259 47.6935 45 46.5 45H13.5C12.3065 45 11.1619 44.5259 10.318 43.682C9.47411 42.8381 9 41.6935 9 40.5V19.5ZM13.5 18C13.1022 18 12.7206 18.158 12.4393 18.4393C12.158 18.7206 12 19.1022 12 19.5C12 19.8978 12.158 20.2794 12.4393 20.5607C12.7206 20.842 13.1022 21 13.5 21H28.5C28.8978 21 29.2794 20.842 29.5607 20.5607C29.842 20.2794 30 19.8978 30 19.5C30 19.1022 29.842 18.7206 29.5607 18.4393C29.2794 18.158 28.8978 18 28.5 18H13.5ZM13.5 24C13.1022 24 12.7206 24.158 12.4393 24.4393C12.158 24.7206 12 25.1022 12 25.5C12 25.8978 12.158 26.2794 12.4393 26.5607C12.7206 26.842 13.1022 27 13.5 27H37.5C37.8978 27 38.2794 26.842 38.5607 26.5607C38.842 26.2794 39 25.8978 39 25.5C39 25.1022 38.842 24.7206 38.5607 24.4393C38.2794 24.158 37.8978 24 37.5 24H13.5ZM15 33C14.2044 33 13.4413 33.3161 12.8787 33.8787C12.3161 34.4413 12 35.2044 12 36V39C12 39.7956 12.3161 40.5587 12.8787 41.1213C13.4413 41.6839 14.2044 42 15 42H27C27.7956 42 28.5587 41.6839 29.1213 41.1213C29.6839 40.5587 30 39.7956 30 39V36C30 35.2044 29.6839 34.4413 29.1213 33.8787C28.5587 33.3161 27.7956 33 27 33H15Z" fill="#FFA514"/>
</svg>
