<svg width="36" height="36" viewBox="0 0 36 36" fill="none" xmlns="http://www.w3.org/2000/svg">
<path d="M25.695 21.3525C25.2675 21.15 23.22 20.1375 22.8375 19.98C22.455 19.8225 22.185 19.7775 21.8925 20.205C21.6 20.6325 20.8125 21.555 20.565 21.8475C20.3175 22.14 20.0925 22.1625 19.665 21.8475C18.4365 21.3559 17.3023 20.6556 16.3125 19.7775C15.4171 18.932 14.6581 17.9529 14.0625 16.875C13.815 16.47 14.0625 16.245 14.2425 16.02C14.4225 15.795 14.6475 15.5475 14.8725 15.3C15.0368 15.0858 15.1729 14.8514 15.2775 14.6025C15.3333 14.4867 15.3623 14.3598 15.3623 14.2312C15.3623 14.1027 15.3333 13.9758 15.2775 13.86C15.2775 13.6575 14.3325 11.61 13.9725 10.7775C13.6125 9.94499 13.2975 10.0575 13.05 10.0575H12.15C11.7213 10.0742 11.3167 10.2603 11.025 10.575C10.5542 11.0243 10.1813 11.5659 9.92961 12.166C9.67795 12.7662 9.55296 13.4118 9.56249 14.0625C9.67891 15.6596 10.2661 17.1865 11.25 18.45C13.056 21.1366 15.5294 23.3076 18.4275 24.75C19.4175 25.1775 20.1825 25.425 20.79 25.6275C21.6426 25.8879 22.5449 25.9418 23.4225 25.785C24.0055 25.6667 24.5579 25.43 25.0456 25.0894C25.5332 24.7488 25.9457 24.3116 26.2575 23.805C26.5169 23.1794 26.6024 22.4952 26.505 21.825C26.3925 21.6675 26.1225 21.555 25.695 21.3525Z" fill="#FFA514"/>
<path d="M29.9025 6.02999C28.3465 4.45923 26.4916 3.21597 24.4474 2.37355C22.4032 1.53113 20.2109 1.10659 18 1.12499C15.0712 1.14032 12.1976 1.92382 9.66633 3.39723C7.13505 4.87064 5.03465 6.98239 3.5749 9.52158C2.11515 12.0608 1.34716 14.9385 1.34762 17.8674C1.34807 20.7963 2.11697 23.6738 3.57751 26.2125L1.32751 34.875L10.1925 32.625C12.6433 33.9586 15.3899 34.6549 18.18 34.65H18C21.3253 34.6717 24.5818 33.7024 27.354 31.866C30.1263 30.0295 32.2888 27.4089 33.5657 24.3385C34.8427 21.268 35.1762 17.8868 34.5238 14.6261C33.8713 11.3653 32.2625 8.37275 29.9025 6.02999ZM18 31.77C15.5035 31.7742 13.053 31.0975 10.9125 29.8125L10.4175 29.52L5.15251 30.8925L6.54751 25.7625L6.23251 25.245C4.43557 22.3511 3.76339 18.8983 4.34352 15.5417C4.92366 12.185 6.71573 9.15814 9.37974 7.03526C12.0437 4.91238 15.3943 3.84124 18.7957 4.02506C22.1972 4.20888 25.4128 5.63488 27.8325 8.03249C29.1297 9.31925 30.1579 10.8513 30.8571 12.5394C31.5563 14.2275 31.9125 16.0379 31.905 17.865C31.8991 21.551 30.4322 25.0843 27.8258 27.6907C25.2194 30.2971 21.686 31.764 18 31.77Z" fill="#FFA514"/>
</svg>
